# xmcd
#
# Track frame offsets: 
#        150
#        17930
#        34354
#        48710
#        62647
#        78741
#        92636
#        109208
#        125574
#        140207
#
# Disc length: 2123 seconds
#
# Revision: 0
# Processed by: cddbd v1.4PL0 Copyright (c) Steve Scherf et al.
# Submitted via: ExactAudioCopy v0.90a11
#
DISCID=9708490a
DTITLE=Ricky Lynn Gregg - Careful What You Wish For
DYEAR=1900
DGENRE=
TTITLE0=I Wanna Be Loved By You
TTITLE1=Victoria's Secret
TTITLE2=Penny
TTITLE3=Can't Do A Thing About You
TTITLE4=Don't Call Home
TTITLE5=Jeans
TTITLE6=One
TTITLE7=Let The Guitar Do The Talkin'
TTITLE8=Tornado
TTITLE9=Careful What You Wish For
EXTD=
EXTT0=
EXTT1=
EXTT2=
EXTT3=
EXTT4=
EXTT5=
EXTT6=
EXTT7=
EXTT8=
EXTT9=
PLAYORDER=
